<?xml version="1.0" encoding="UTF-8" standalone="no"?>
<!-- Created with Inkscape (http://www.inkscape.org/) -->

<svg
   xmlns:dc="http://purl.org/dc/elements/1.1/"
   xmlns:cc="http://creativecommons.org/ns#"
   xmlns:rdf="http://www.w3.org/1999/02/22-rdf-syntax-ns#"
   xmlns:svg="http://www.w3.org/2000/svg"
   xmlns="http://www.w3.org/2000/svg"
   xmlns:sodipodi="http://sodipodi.sourceforge.net/DTD/sodipodi-0.dtd"
   xmlns:inkscape="http://www.inkscape.org/namespaces/inkscape"
   width="196.81651mm"
   height="143.49815mm"
   viewBox="0 0 196.81651 143.49815"
   version="1.1"
   id="svg4691"
   inkscape:version="0.92.2 5c3e80d, 2017-08-06"
   sodipodi:docname="arca2.svg">
  <defs
     id="defs4685" />
  <sodipodi:namedview
     id="base"
     pagecolor="#ffffff"
     bordercolor="#666666"
     borderopacity="1.0"
     inkscape:pageopacity="0.0"
     inkscape:pageshadow="2"
     inkscape:zoom="0.7"
     inkscape:cx="265.00219"
     inkscape:cy="209.25321"
     inkscape:document-units="mm"
     inkscape:current-layer="layer1"
     showgrid="false"
     inkscape:window-width="1920"
     inkscape:window-height="1044"
     inkscape:window-x="1680"
     inkscape:window-y="36"
     inkscape:window-maximized="1" />
  <metadata
     id="metadata4688">
    <rdf:RDF>
      <cc:Work
         rdf:about="">
        <dc:format>image/svg+xml</dc:format>
        <dc:type
           rdf:resource="http://purl.org/dc/dcmitype/StillImage" />
        <dc:title></dc:title>
      </cc:Work>
    </rdf:RDF>
  </metadata>
  <g
     inkscape:label="Camada 1"
     inkscape:groupmode="layer"
     id="layer1"
     transform="translate(-16.874482,-2.6229444)">
    <path
       inkscape:connector-curvature="0"
       id="path3713"
       style="fill:#a7a5a6;fill-opacity:1;fill-rule:nonzero;stroke:none;stroke-width:0.04694222"
       d="m 196.01074,145.549 c -3.04908,0.001 -63.33742,-16.93579 -72.99795,-17.19547 -0.25885,-0.007 -0.58788,-0.01 -0.97396,-0.01 -3.22894,0 -10.70028,0.23054 -20.25113,0.46109 -9.550848,0.23054 -21.189984,0.46109 -32.741378,0.46109 -27.678594,0 -54.893905,-1.3225 -51.953192,-7.13837 0,0 0.668165,-5.1167 26.884959,-7.00426 1.807509,0.9036 3.834377,1.74894 6.093766,2.53148 1.333695,0.57763 2.171645,0.72429 2.268161,0.73935 9.147229,2.81578 21.690121,4.72091 38.242876,5.54515 v 0 c 0.04387,0.003 0.08775,0.004 0.131614,0.007 0.01316,3.8e-4 0.01753,10e-4 0.02633,10e-4 1.653961,0.0793 3.303532,0.11704 4.948717,0.11704 v 0 0 0 c 0,0 0.0044,0 0.0088,0 29.687927,-3.7e-4 57.296317,-12.29625 57.296317,-12.29625 -1.92158,2.52192 44.08219,33.12972 43.1214,33.76459 -0.0132,0.0114 -0.0526,0.0165 -0.10533,0.0165 M 152.99462,111.7678 c 0,0 0.0219,-0.0693 0.0571,-0.20041 0.0175,0.0608 0,0.127 -0.0571,0.20041" />
    <path
       inkscape:connector-curvature="0"
       id="path3715"
       style="fill:#8c5132;fill-opacity:1;fill-rule:nonzero;stroke:none;stroke-width:0.04694222"
       d="m 30.057628,2.6229444 2.799008,2.8017029 c 0,0 0.644914,0.6745591 0,3.0654 C 32.216112,10.880384 31.601909,19.82243 31.601909,19.82243 h -4.795166 c 0,0 0.930078,-12.0315536 3.250885,-17.1994856" />
    <path
       inkscape:connector-curvature="0"
       id="path3717"
       style="fill:#7a4524;fill-opacity:1;fill-rule:nonzero;stroke:none;stroke-width:0.04694222"
       d="m 25.942472,18.327652 c 0,0 10.801188,0.58867 24.690937,3.72941 13.885363,3.140742 47.4954,14.722756 62.240651,20.219174 14.74525,5.496924 45.60892,13.937696 45.60892,13.937696 0,0 1.71537,22.18258 1.19769,28.07179 -0.5133,5.8892 -6.68603,27.482108 -6.68603,27.482108 0,0 -30.86367,13.7418 -62.411748,12.17119 C 59.034824,122.36839 42.056512,116.87197 35.37048,108.62759 28.684448,100.38271 22.340614,77.807852 22.169514,54.447421 21.998415,31.087509 23.542696,22.253452 25.942472,18.327652" />
    <path
       inkscape:connector-curvature="0"
       id="path3719"
       style="fill:#0d1523;fill-opacity:1;fill-rule:nonzero;stroke:none;stroke-width:0.04694222"
       d="m 34.861569,32.327631 c 2.07074,0.224519 9.406072,2.663075 19.553575,6.039378 26.809938,8.916941 75.367026,25.067163 102.536716,25.065663 0.69316,0 1.36879,-0.0128 2.03563,-0.0346 -0.0351,-0.51936 -0.0658,-1.02163 -0.10085,-1.50282 -26.4941,0.83222 -76.696384,-15.85997 -104.102975,-24.9758 -10.599381,-3.525486 -17.605676,-5.854546 -19.794869,-6.091621 -4.672325,-0.506798 -9.357812,1.308433 -12.32792,2.89362 -0.04826,0.632869 -0.08775,1.294369 -0.127227,1.97395 1.825058,-1.320487 6.365769,-4.012695 12.32792,-3.36777" />
    <path
       inkscape:connector-curvature="0"
       id="path3721"
       style="fill:#0d1523;fill-opacity:1;fill-rule:nonzero;stroke:none;stroke-width:0.04694222"
       d="m 41.187854,87.511342 c -1.399504,-0.31041 -2.535778,-0.56254 -3.373726,-0.73633 -5.655049,-1.1703 -9.292006,-0.71877 -11.568941,0.095 0.122843,0.48871 0.250068,0.9709 0.377296,1.45057 2.053191,-0.73886 5.470788,-1.19794 10.954738,-0.0628 0.837948,0.17278 1.965448,0.42392 3.360565,0.73282 8.625158,1.91518 28.823645,6.39902 51.382421,8.10224 6.120089,0.4621 11.990113,0.69264 17.601293,0.69264 19.50092,0 35.87381,-2.79568 48.8598,-8.3358 0.13161,-0.6178 0.25446,-1.20748 0.36413,-1.76399 -26.03341,11.478553 -65.71527,11.423293 -117.957576,-0.1743" />
    <path
       inkscape:connector-curvature="0"
       id="path3723"
       style="fill:#0d1523;fill-opacity:1;fill-rule:nonzero;stroke:none;stroke-width:0.04694222"
       d="m 23.090819,29.106526 c 3.566761,-1.902124 11.191645,-3.984567 25.537659,-0.203423 6.769387,1.78409 16.513273,5.044875 27.801435,8.820501 24.511067,8.19816 57.599037,19.26183 82.329457,22.291062 -0.0395,-0.56104 -0.0746,-1.073358 -0.10969,-1.528427 C 134.06843,55.429885 101.18227,44.432021 76.802824,36.277039 65.492722,32.495392 55.726902,29.228579 48.922418,27.434444 35.203767,23.819052 27.412172,25.398714 23.327725,27.304856 c -0.08336,0.572095 -0.162325,1.169805 -0.236906,1.80167" />
    <path
       inkscape:connector-curvature="0"
       id="path3725"
       style="fill:#0d1523;fill-opacity:1;fill-rule:nonzero;stroke:none;stroke-width:0.04694222"
       d="m 41.161531,50.434729 c -6.773775,-2.022663 -10.858221,-3.243197 -11.884817,-3.34316 -2.053191,-0.201906 -5.115429,1.690167 -7.120361,3.132711 0,0.587665 0,1.190891 0,1.79866 1.991771,-1.493786 5.233883,-3.601833 7.010683,-3.429555 0.912528,0.08842 5.42253,1.43551 11.661071,3.299962 12.994771,3.882103 34.74631,10.380575 54.027879,14.509285 22.602654,4.84095 52.891614,5.49542 64.631644,5.5562 -0.0264,-0.50178 -0.0526,-1.00456 -0.079,-1.50734 -11.7532,-0.0628 -41.85788,-0.72076 -64.311381,-5.53007 C 75.863969,60.802741 54.138753,54.312817 41.161531,50.434729" />
    <path
       inkscape:connector-curvature="0"
       id="path3727"
       style="fill:#0d1523;fill-opacity:1;fill-rule:nonzero;stroke:none;stroke-width:0.04694222"
       d="m 80.602102,78.180542 c -27.182845,-4.5657 -45.94673,-11.14705 -46.135377,-11.21284 -5.347949,-1.89209 -9.410459,-1.01008 -11.643524,-0.13013 0.05264,0.51784 0.105296,1.03367 0.162325,1.54901 1.961062,-0.8172 5.883183,-1.82175 11.095128,0.0207 0.184261,0.0668 19.049051,6.68129 46.328416,11.26458 16.241265,2.72786 31.49104,4.09205 45.64841,4.09205 12.0603,0 23.31775,-1.00355 33.7197,-2.98554 -0.005,-0.47968 -0.009,-0.98447 -0.0175,-1.51085 -22.51929,4.32008 -49.13619,3.95644 -79.157538,-1.08693" />
    <path
       inkscape:connector-curvature="0"
       id="path3729"
       style="fill:#0d1523;fill-opacity:1;fill-rule:nonzero;stroke:none;stroke-width:0.04694222"
       d="m 55.353995,99.066755 c -1.73293,-0.35512 -3.299146,-0.676583 -4.676712,-0.944793 -11.748816,-2.28084 -18.272524,-2.03524 -21.488311,-1.543 0.179872,0.49424 0.359746,0.97894 0.544007,1.45358 3.189465,-0.42693 9.546461,-0.59418 20.724945,1.575653 1.37318,0.26671 2.93501,0.587175 4.66355,0.941785 10.296668,2.11207 27.529433,5.64759 46.578486,6.08909 1.32492,0.0312 2.64107,0.0457 3.94844,0.0457 19.50094,0 36.7688,-3.43455 51.46578,-10.210278 0.15356,-0.61379 0.3071,-1.22507 0.45626,-1.8293 -37.28647,17.737418 -80.943105,8.785848 -102.216445,4.421543" />
    <path
       inkscape:connector-curvature="0"
       id="path3731"
       style="fill:#0d1523;fill-opacity:1;fill-rule:nonzero;stroke:none;stroke-width:0.04694222"
       d="m 32.176627,58.799158 c -5.273367,-1.766511 -8.322443,-1.273271 -9.923756,-0.598215 0.01755,0.532422 0.03948,1.06332 0.06581,1.593735 1.114339,-0.600223 3.895799,-1.422455 9.489427,0.45054 3.961606,1.327014 24.010928,7.228264 49.671431,11.852244 15.872746,2.85946 36.672271,5.68528 56.879541,5.68528 7.26952,0 14.46447,-0.36917 21.32598,-1.23009 -0.0175,-0.49575 -0.0395,-1.00003 -0.0571,-1.51134 -47.03469,5.9334 -113.245725,-11.48659 -127.45135,-16.242154" />
    <path
       inkscape:connector-curvature="0"
       id="path3733"
       style="fill:#0d1523;fill-opacity:1;fill-rule:nonzero;stroke:none;stroke-width:0.04694222"
       d="m 154.94253,104.74047 c 0.17111,-0.62683 0.34659,-1.27979 0.52647,-1.95134 -21.24263,11.61566 -50.97442,14.91059 -80.34646,8.76472 -24.388225,-5.10212 -36.514336,-5.06947 -41.059434,-4.73245 0.346586,0.52789 0.693171,1.01158 1.044144,1.46363 5.115429,-0.23707 17.232766,0.0336 39.778384,4.75105 9.82724,2.05632 19.698348,3.0639 29.288686,3.0639 18.83408,0 36.58453,-3.89116 50.76821,-11.35951" />
    <path
       inkscape:connector-curvature="0"
       id="path3735"
       style="fill:#0d1523;fill-opacity:1;fill-rule:nonzero;stroke:none;stroke-width:0.04694222"
       d="M 105.60453,58.955873 C 88.924545,55.059204 70.537959,49.883741 55.770776,45.724884 42.170578,41.896514 32.343339,39.130981 29.983047,39.094318 c -2.869202,-0.0467 -5.742793,1.39331 -7.708241,2.659547 -0.01755,0.695659 -0.03509,1.409897 -0.05264,2.144738 1.202082,-1.041224 4.26432,-3.353212 7.743337,-3.297457 2.211129,0.0336 12.485858,2.925765 25.489403,6.587368 14.780343,4.161875 33.180092,9.341354 49.886404,13.244045 24.53738,5.731993 39.12908,7.298603 49.11865,7.298603 1.72853,0 3.30791,-0.0493 4.79077,-0.12914 -0.0307,-0.50681 -0.0614,-1.00808 -0.0922,-1.50132 -9.95008,0.53545 -24.93662,-0.45906 -53.55407,-7.144886" />
    <path
       inkscape:connector-curvature="0"
       id="path3737"
       style="fill:#0d1523;fill-opacity:1;fill-rule:nonzero;stroke:none;stroke-width:0.04694222"
       d="m 159.75526,82.878842 c -22.9624,7.88927 -52.83019,6.56426 -74.090373,4.00265 -24.037252,-2.89663 -45.007879,-8.39558 -49.509106,-10.53075 -5.290915,-2.50938 -9.612267,-2.05983 -12.288436,-1.25771 0.07897,0.5063 0.162326,1.00908 0.245682,1.50935 2.465584,-0.74639 6.558804,-1.22304 11.538231,1.14068 4.689874,2.22609 25.37095,7.68433 49.877625,10.63672 9.234974,1.11305 20.084417,1.99303 31.302397,1.99303 14.57854,0 29.77127,-1.49226 42.83184,-5.8897 0.005,-0.0668 0.0132,-0.13412 0.0175,-0.19739 0.0351,-0.39781 0.0614,-0.87195 0.0746,-1.40688" />
    <path
       inkscape:connector-curvature="0"
       id="path3739"
       style="fill:#5d2e19;fill-opacity:1;fill-rule:nonzero;stroke:none;stroke-width:0.04694222"
       d="m 52.348791,118.39538 c 0,0 -14.442533,-5.65865 -22.291163,-39.606588 -7.853017,-33.948431 -2.228677,-71.4544856 0,-76.1658476 l -2.228677,1.5701189 c 0,0 -7.374377,31.0161337 -0.517684,71.2586087 6.861518,40.241958 25.037524,42.943708 25.037524,42.943708" />
    <path
       inkscape:connector-curvature="0"
       id="path3741"
       style="fill:#281310;fill-opacity:1;fill-rule:nonzero;stroke:none;stroke-width:0.04694222"
       d="m 114.07175,57.78406 14.23195,3.730412 2.74198,52.608538 -13.71426,2.35618 -3.25967,-58.69513" />
    <path
       inkscape:connector-curvature="0"
       id="path3743"
       style="fill:#8c5132;fill-opacity:1;fill-rule:nonzero;stroke:none;stroke-width:0.04694222"
       d="M 52.344402,22.463406 61.2635,16.56064 84.752359,22.463406 154.36781,48.558217 152.82354,50.32524 84.239061,24.805023 61.605698,19.3086 l -6.418416,3.886623 -2.84288,-0.731817" />
    <path
       inkscape:connector-curvature="0"
       id="path3745"
       style="fill:#4c2416;fill-opacity:1;fill-rule:nonzero;stroke:none;stroke-width:0.04694222"
       d="m 55.187282,23.195223 6.418416,-3.886623 22.633363,5.496423 2.939396,1.093458 -0.486974,7.1459 c 0,0 -29.257974,-9.210764 -31.504201,-9.849158" />
    <path
       inkscape:connector-curvature="0"
       id="path3747"
       style="fill:#5d2e19;fill-opacity:1;fill-rule:nonzero;stroke:none;stroke-width:0.04694222"
       d="m 150.79667,49.570809 -63.653311,-23.684886 -0.513298,7.13887 c 10.186987,3.439595 19.939649,6.901795 26.243999,9.251443 10.20454,3.804749 28.13485,9.019907 38.20339,11.870326 l -0.27639,-4.573732 -0.005,-0.0014" />
    <path
       inkscape:connector-curvature="0"
       id="path3749"
       style="fill:#7a4524;fill-opacity:1;fill-rule:nonzero;stroke:none;stroke-width:0.04694222"
       d="M 196.11604,146.1211 213.691,130.61328 v -1.27579 l -17.57496,14.62431 v 2.1593" />
    <path
       inkscape:connector-curvature="0"
       id="path3751"
       style="fill:#220c0a;fill-opacity:1;fill-rule:nonzero;stroke:none;stroke-width:0.04694222"
       d="m 130.29547,47.389921 -2.86919,-0.941758 v -2.274828 l 2.86919,0.966888 v 2.249698" />
    <path
       inkscape:connector-curvature="0"
       id="path3753"
       style="fill:#220c0a;fill-opacity:1;fill-rule:nonzero;stroke:none;stroke-width:0.04694222"
       d="m 118.06407,43.376731 -3.47463,-1.141173 v -2.387833 l 3.47463,1.172325 v 2.356681" />
    <path
       inkscape:connector-curvature="0"
       id="path3755"
       style="fill:#220c0a;fill-opacity:1;fill-rule:nonzero;stroke:none;stroke-width:0.04694222"
       d="m 124.35965,45.442093 -2.69372,-0.88401 V 42.23254 l 2.69372,0.908114 v 2.301439" />
    <path
       inkscape:connector-curvature="0"
       id="path3757"
       style="fill:#220c0a;fill-opacity:1;fill-rule:nonzero;stroke:none;stroke-width:0.04694222"
       d="m 103.65663,38.648789 -4.242384,-1.391814 v -2.520923 l 4.242384,1.429984 v 2.482753" />
    <path
       inkscape:connector-curvature="0"
       id="path3759"
       style="fill:#220c0a;fill-opacity:1;fill-rule:nonzero;stroke:none;stroke-width:0.04694222"
       d="m 110.98758,41.053694 -3.47463,-1.138667 V 37.46543 l 3.47463,1.169805 v 2.418459" />
    <path
       inkscape:connector-curvature="0"
       id="path3761"
       style="fill:#220c0a;fill-opacity:1;fill-rule:nonzero;stroke:none;stroke-width:0.04694222"
       d="m 140.45175,50.721535 -2.13216,-0.700172 v -2.179392 l 2.13216,0.719265 v 2.160299" />
    <path
       inkscape:connector-curvature="0"
       id="path3763"
       style="fill:#220c0a;fill-opacity:1;fill-rule:nonzero;stroke:none;stroke-width:0.04694222"
       d="m 135.50303,49.098669 -2.14093,-0.70319 v -2.223073 l 2.14093,0.722268 v 2.203995" />
    <path
       inkscape:connector-curvature="0"
       id="path3765"
       style="fill:#220c0a;fill-opacity:1;fill-rule:nonzero;stroke:none;stroke-width:0.04694222"
       d="m 94.97444,35.800879 -4.935556,-1.620347 v -2.602801 l 4.935556,1.664046 v 2.559102" />
    <path
       inkscape:connector-curvature="0"
       id="path3767"
       style="fill:#220c0a;fill-opacity:1;fill-rule:nonzero;stroke:none;stroke-width:0.04694222"
       d="m 149.69549,53.753785 -2.25061,-0.738358 v -2.099005 l 2.25061,0.758432 v 2.078931" />
    <path
       inkscape:connector-curvature="0"
       id="path3769"
       style="fill:#220c0a;fill-opacity:1;fill-rule:nonzero;stroke:none;stroke-width:0.04694222"
       d="m 145.40484,52.345895 -2.14092,-0.701182 v -2.136679 l 2.14092,0.72076 v 2.117101" />
    <path
       inkscape:connector-curvature="0"
       id="path3771"
       style="fill:#7d6a5e;fill-opacity:1;fill-rule:nonzero;stroke:none;stroke-width:0.04694222"
       d="m 95.689546,124.06408 v 0 0 0 m 0.0088,0 c 29.683524,-0.001 57.296324,-12.29625 57.296324,-12.29625 v 0 c 0,0 -27.60841,12.29576 -57.296324,12.29625 m -4.957493,-0.11703 c -0.0088,-3.9e-4 -0.01316,-0.001 -0.02633,-0.001 0.01316,3.7e-4 0.01753,0.001 0.02633,0.001" />
    <path
       inkscape:connector-curvature="0"
       id="path3773"
       style="fill:#5e311c;fill-opacity:1;fill-rule:nonzero;stroke:none;stroke-width:0.04694222"
       d="m 95.689546,124.06408 v 0 c -1.645184,0 -3.294756,-0.0377 -4.948717,-0.11703 -0.0088,-3.9e-4 -0.01316,-0.001 -0.02633,-0.001 -0.04387,-0.001 -0.08774,-0.004 -0.131614,-0.007 v 0 c -16.552751,-0.82414 -29.095643,-2.72929 -38.242872,-5.54505 0.0044,10e-4 0.0088,10e-4 0.0088,10e-4 0,0 -4.839039,-1.89509 -10.432669,-10.07016 6.747453,0.3099 17.359994,1.44456 32.969511,4.71086 9.827241,2.05632 19.698348,3.06389 29.288685,3.06389 4.43542,0 8.81381,-0.21598 13.10006,-0.64392 l 0.0571,1.02314 13.71426,-2.35618 -0.0395,-0.83629 c 8.67342,-1.90665 16.76334,-4.76863 23.93634,-8.54625 -1.09678,4.04735 -1.9479,7.02737 -1.9479,7.02737 v 0 c 0,0 -27.61278,12.29424 -57.296312,12.29625 -0.0044,0 -0.0088,0 -0.0088,0 M 50.071855,117.65452 C 43.039236,115.21746 38.248457,112.17718 35.37048,108.62759 28.684448,100.38271 22.340614,77.807852 22.169514,54.447421 v 0 c -0.0088,-0.92117 -0.01316,-1.818236 -0.01316,-2.692707 0,0.08884 0,0.178812 0,0.268226 0.412393,-0.308405 0.877433,-0.642922 1.368794,-0.977937 0.381684,0.967885 0.816013,2.03925 1.307374,3.199501 0.07458,1.108526 0.153551,2.224583 0.245681,3.356729 -1.232792,0.06678 -2.154096,0.317431 -2.825332,0.59971 0.01755,0.532422 0.03949,1.06332 0.06581,1.593735 0.535234,-0.288315 1.456538,-0.627858 2.886752,-0.69516 0.197422,2.262254 0.438716,4.566204 0.728268,6.914854 -1.259115,0.18735 -2.303259,0.5053 -3.110496,0.82324 0.05264,0.51784 0.105296,1.03368 0.162325,1.54901 0.763366,-0.31794 1.820671,-0.664 3.13682,-0.85989 0.298326,2.28686 0.640525,4.61542 1.030982,6.97212 -1.267889,0.0884 -2.373453,0.32095 -3.285983,0.59418 0.07897,0.5063 0.162325,1.00908 0.24568,1.50935 0.894981,-0.27123 2.004933,-0.5073 3.299145,-0.58365 0.644914,3.69125 1.381956,7.057 2.193581,10.13545 -1.355633,0.13113 -2.465585,0.3953 -3.360566,0.71575 0.122844,0.48873 0.250069,0.97091 0.377296,1.45058 0.864271,-0.31241 1.97861,-0.5746 3.386889,-0.68762 0.89498,3.197 1.86893,6.0645 2.891138,8.63465 -1.553054,0.0447 -2.772685,0.16776 -3.711538,0.31142 0.179874,0.49424 0.359748,0.97894 0.544009,1.45358 0.960787,-0.12857 2.206741,-0.23355 3.786119,-0.25816 1.509182,3.544578 3.106109,6.483398 4.707422,8.920438 -0.09652,-3.7e-4 -0.193034,-3.7e-4 -0.289552,-3.7e-4 -1.649573,0 -2.926236,0.0568 -3.873863,0.12701 0.346587,0.52788 0.693172,1.01158 1.044144,1.46363 0.75898,-0.0352 1.671509,-0.0588 2.746363,-0.0588 0.451877,0 0.930078,0.004 1.438988,0.0142 4.211675,5.83345 8.331218,8.35237 10.779255,9.41469 m 54.102461,-3.06035 c -9.506977,3.8e-4 -19.294733,-0.99952 -29.051777,-3.04028 -16.60979,-3.47526 -27.529432,-4.56821 -34.246175,-4.80528 -1.553054,-2.45765 -3.14998,-5.40952 -4.698648,-8.943048 3.500954,0.12856 8.168892,0.61629 14.280206,1.802673 1.373181,0.2667 2.93501,0.587155 4.663551,0.941765 1.86893,0.38324 3.970381,0.81369 6.264865,1.26424 0.412396,0.24761 0.829174,0.49122 1.245954,0.7278 11.555781,6.53311 28.665707,10.51466 45.367624,10.51466 3.06224,0 6.11572,-0.13454 9.11653,-0.41187 l 0.0746,1.30794 c -4.25555,0.42644 -8.60762,0.6414 -13.01672,0.6414 m 26.74853,-2.82481 -0.079,-1.55304 c 8.37509,-2.29339 15.73235,-6.0469 21.02766,-11.509175 1.78119,-0.699163 3.52726,-1.443053 5.24265,-2.232633 -0.57911,2.298933 -1.1933,4.624478 -1.75926,6.745098 0.0351,-0.14265 0.0746,-0.28629 0.11404,-0.43045 -7.30025,3.99059 -15.60075,6.99923 -24.54617,8.9802 M 57.999497,99.608415 c -0.916917,-0.18635 -1.798737,-0.36766 -2.645457,-0.54095 -1.73293,-0.35511 -3.299147,-0.676573 -4.676712,-0.944783 -6.576355,-1.2773 -11.516297,-1.762 -15.153253,-1.85542 -1.074854,-2.59024 -2.118998,-5.4713 -3.110496,-8.67684 1.474085,0.0562 3.185077,0.25818 5.163687,0.66802 0.837948,0.17279 1.965447,0.42393 3.360565,0.73284 1.737316,0.38574 3.93967,0.87546 6.541256,1.42546 3.198241,3.37932 6.70358,6.51051 10.52041,9.191673 m 96.026173,-3.363753 c 1.52672,-1.94733 2.82094,-4.08301 3.84315,-6.41257 0.3071,-0.12558 0.60981,-0.25265 0.91253,-0.38174 0.13161,-0.6178 0.25445,-1.20747 0.36413,-1.76399 -0.1711,0.0753 -0.34219,0.15018 -0.5133,0.22401 0.39484,-1.09948 0.72828,-2.23614 1.00467,-3.41749 0.009,-0.003 0.0175,-0.006 0.0264,-0.009 0.005,-0.0668 0.0132,-0.13412 0.0175,-0.19739 v 0 c -0.18866,2.19746 -1.17138,6.58185 -2.32521,11.21384 0.0746,-0.2858 0.14478,-0.57109 0.21498,-0.85437 -1.17576,0.55854 -2.36029,1.09195 -3.54483,1.59875 M 45.715439,88.495592 c -1.500409,-0.31795 -3.005205,-0.64543 -4.52755,-0.98295 -1.399504,-0.31041 -2.535778,-0.56255 -3.373726,-0.73635 -2.259387,-0.46761 -4.198513,-0.67656 -5.856859,-0.70619 -0.666848,-2.26929 -1.302987,-4.69228 -1.899641,-7.28001 -0.214971,-0.91616 -0.412393,-1.83181 -0.605428,-2.75198 1.833833,0.1391 3.922121,0.62633 6.199058,1.70624 0.574718,0.27324 1.390729,0.59469 2.4261,0.95482 2.298871,3.34065 4.843424,6.65367 7.638046,9.79642 m -9.068251,-11.92419 c -0.179874,-0.0763 -0.346585,-0.14968 -0.491362,-0.21949 -2.601586,-1.2341 -4.966265,-1.75244 -7.019456,-1.86546 -0.469426,-2.36372 -0.873046,-4.7415 -1.224018,-7.11276 0.127228,-0.003 0.254455,-0.006 0.386071,-0.006 0.92569,0 1.93035,0.0834 3.009591,0.2868 1.583765,2.89262 3.360565,5.90176 5.339174,8.91593 m -6.238542,-10.58549 c -0.758979,-0.0974 -1.48286,-0.1401 -2.16287,-0.1401 -0.18426,0 -0.368521,0.003 -0.548395,0.01 -0.311488,-2.24619 -0.570331,-4.48383 -0.789689,-6.710934 0.0351,0.0028 0.0702,0.0057 0.105296,0.01 0.995886,2.136194 2.123387,4.436104 3.395661,6.831974 m -8.252296,-15.76209 c 0.0044,-0.949817 0.0088,-1.872497 0.01755,-2.771072 0.214971,0.609263 0.486975,1.34661 0.811625,2.193943 -0.289552,0.196396 -0.57033,0.390785 -0.829173,0.577129" />
    <path
       inkscape:connector-curvature="0"
       id="path3775"
       style="fill:#0c1118;fill-opacity:1;fill-rule:nonzero;stroke:none;stroke-width:0.04694222"
       d="m 47.479042,90.416012 c -2.601586,-0.54999 -4.80394,-1.03971 -6.541256,-1.42546 -1.395117,-0.3089 -2.522617,-0.56004 -3.360565,-0.73282 -1.978609,-0.40986 -3.689602,-0.61178 -5.163687,-0.66803 -0.153551,-0.49826 -0.307102,-1.00707 -0.456265,-1.5209 1.658347,0.0296 3.597472,0.23858 5.856859,0.70621 0.837948,0.17379 1.974222,0.42592 3.373726,0.73633 1.522345,0.33754 3.027141,0.66502 4.52755,0.98295 0.574718,0.64795 1.166985,1.28986 1.763638,1.92172 m 110.389728,-0.58465 c 0.272,-0.62583 0.53085,-1.26675 0.76336,-1.92171 0.17111,-0.0739 0.34221,-0.14867 0.5133,-0.22402 -0.10969,0.55653 -0.23252,1.1462 -0.36413,1.764 -0.30271,0.12914 -0.60542,0.25616 -0.91253,0.38173 M 26.622483,88.320512 c -0.127228,-0.47967 -0.254457,-0.96185 -0.377296,-1.45058 0.89498,-0.32045 2.004932,-0.58464 3.360564,-0.71575 0.131614,0.49978 0.267617,0.99451 0.403619,1.47871 -1.408279,0.11305 -2.522617,0.37521 -3.386887,0.68762" />
    <path
       inkscape:connector-curvature="0"
       id="path3777"
       style="fill:#0c1118;fill-opacity:1;fill-rule:nonzero;stroke:none;stroke-width:0.04694222"
       d="m 22.156353,52.02294 c 0,-0.08941 0,-0.179325 0,-0.268226 0,-0.518341 0,-1.028153 0,-1.530932 0.258843,-0.186344 0.539621,-0.380733 0.829173,-0.577129 0.166712,0.437485 0.346586,0.904612 0.539622,1.39835 -0.491363,0.335015 -0.956402,0.669532 -1.368795,0.977937" />
    <path
       inkscape:connector-curvature="0"
       id="path3779"
       style="fill:#0c1118;fill-opacity:1;fill-rule:nonzero;stroke:none;stroke-width:0.04694222"
       d="m 22.985526,68.386622 c -0.05703,-0.51533 -0.109673,-1.03117 -0.162325,-1.54901 0.807238,-0.31794 1.851382,-0.63589 3.110498,-0.82324 0.06142,0.50228 0.122843,1.00607 0.188647,1.51236 -1.316148,0.19589 -2.373454,0.54195 -3.13682,0.85989 m 8.322443,-0.73232 c -1.079241,-0.20341 -2.0839,-0.28679 -3.009591,-0.28679 -0.131616,0 -0.258843,10e-4 -0.386071,0.006 -0.07458,-0.50681 -0.144775,-1.0121 -0.214971,-1.51839 0.179874,-0.006 0.364135,-0.01 0.548395,-0.01 0.680011,0 1.403892,0.0427 2.16287,0.1401 0.293939,0.55201 0.592266,1.10803 0.899368,1.66957" />
    <path
       inkscape:connector-curvature="0"
       id="path3781"
       style="fill:#0c1118;fill-opacity:1;fill-rule:nonzero;stroke:none;stroke-width:0.04694222"
       d="m 61.38634,101.81421 c -2.294484,-0.45054 -4.395936,-0.88099 -6.264866,-1.26423 -1.72854,-0.35461 -3.29037,-0.675075 -4.66355,-0.941785 -6.111314,-1.186373 -10.779252,-1.674093 -14.280207,-1.802673 -0.219358,-0.50127 -0.438716,-1.0136 -0.653687,-1.53898 3.636956,0.0934 8.576898,0.57813 15.153253,1.85542 1.377566,0.26821 2.943782,0.589673 4.676712,0.944793 0.84672,0.17327 1.72854,0.3546 2.645458,0.54095 1.105564,0.775505 2.228676,1.510845 3.386887,2.206505 m 90.48519,-3.107095 c 0.76336,-0.786063 1.47847,-1.605793 2.15409,-2.463183 1.18454,-0.50679 2.36907,-1.04021 3.54482,-1.59874 -0.0701,0.28329 -0.14039,0.56858 -0.21497,0.85438 v 0 c -0.079,0.32446 -0.15793,0.64894 -0.24129,0.97492 v 0 c -1.71538,0.78957 -3.46146,1.53345 -5.24265,2.232623 M 29.732979,98.032542 c -0.184261,-0.47464 -0.364135,-0.95934 -0.544007,-1.45358 0.938851,-0.14366 2.158482,-0.26671 3.711536,-0.31142 0.206197,0.51434 0.412393,1.01611 0.61859,1.50684 -1.579378,0.0246 -2.825331,0.12957 -3.786119,0.25816" />
    <path
       inkscape:connector-curvature="0"
       id="path3783"
       style="fill:#0c1118;fill-opacity:1;fill-rule:nonzero;stroke:none;stroke-width:0.04694222"
       d="m 22.318678,59.794678 c -0.02633,-0.530415 -0.04826,-1.061313 -0.06581,-1.593735 0.671235,-0.282279 1.592539,-0.532906 2.825331,-0.59971 0.03949,0.495233 0.08336,0.998524 0.127227,1.498285 -1.430213,0.06735 -2.351518,0.406845 -2.886752,0.69516 m 4.694262,-0.641911 c -0.03509,-0.0028 -0.07019,-0.0071 -0.105296,-0.01 -0.0088,-0.08941 -0.01755,-0.179325 -0.02194,-0.268226 0.03948,0.0924 0.08336,0.184337 0.127228,0.277765" />
    <path
       inkscape:connector-curvature="0"
       id="path3785"
       style="fill:#0c1118;fill-opacity:1;fill-rule:nonzero;stroke:none;stroke-width:0.04694222"
       d="m 104.17432,116.09998 c -9.590338,0 -19.461446,-1.00758 -29.288686,-3.0639 -15.609518,-3.26631 -26.222059,-4.40096 -32.969511,-4.71086 -0.342198,-0.50178 -0.688784,-1.02666 -1.039757,-1.57665 6.716743,0.23708 17.636384,1.33003 34.246174,4.80528 9.757044,2.04076 19.5448,3.0408 29.05178,3.0403 4.40909,0 8.76117,-0.21498 13.01671,-0.64141 l 0.0833,1.50331 c -4.28626,0.42794 -8.66465,0.64393 -13.10007,0.64393 m 26.83187,-2.81326 -0.0833,-1.51738 c 8.94542,-1.98099 17.24593,-4.98963 24.54617,-8.98021 -0.0394,0.14415 -0.079,0.2878 -0.11404,0.43045 v 0 c -0.14038,0.52036 -0.27639,1.02916 -0.41239,1.52139 0,-3.7e-4 0,-3.7e-4 0,-3.7e-4 -7.173,3.77762 -15.26292,6.6396 -23.93634,8.54623 m -95.89898,-5.0018 c -0.350973,-0.45205 -0.697558,-0.93574 -1.044144,-1.46363 0.947626,-0.0703 2.22429,-0.127 3.873863,-0.127 0.09652,0 0.193034,0 0.289552,3.7e-4 0.35536,0.53896 0.71072,1.05378 1.06608,1.54501 -0.508911,-0.01 -0.987111,-0.0142 -1.438989,-0.0142 -1.074853,0 -1.987383,0.0236 -2.746362,0.0588" />
    <path
       inkscape:connector-curvature="0"
       id="path3787"
       style="fill:#0c1118;fill-opacity:1;fill-rule:nonzero;stroke:none;stroke-width:0.04694222"
       d="m 159.6368,84.492152 c 0.0132,-0.0678 0.0307,-0.13811 0.0439,-0.20643 -0.005,0.0634 -0.0132,0.13056 -0.0175,0.19739 -0.009,0.003 -0.0175,0.006 -0.0264,0.009 M 38.077358,78.697882 c -1.035371,-0.36013 -1.851382,-0.68159 -2.4261,-0.95482 -2.276936,-1.0799 -4.365225,-1.56711 -6.199058,-1.70625 -0.109673,-0.51633 -0.21497,-1.03419 -0.315875,-1.55153 2.053191,0.11305 4.41787,0.63136 7.019456,1.86546 0.144777,0.0698 0.311488,0.14315 0.491362,0.21949 0.46504,0.70872 0.943239,1.41994 1.430215,2.12765 m -13.964331,-2.0955 c -0.08336,-0.50027 -0.166713,-1.00305 -0.245682,-1.50935 0.91253,-0.27323 2.018094,-0.50579 3.285984,-0.59418 0.05264,0.31793 0.105296,0.63337 0.157938,0.95282 0.03509,0.18935 0.06581,0.37972 0.100906,0.56706 -1.294213,0.0763 -2.404165,0.31242 -3.299145,0.58365" />
    <path
       inkscape:connector-curvature="0"
       id="path3789"
       style="fill:#492114;fill-opacity:1;fill-rule:nonzero;stroke:none;stroke-width:0.04694222"
       d="m 52.348791,118.39538 c 0,0 -0.0044,-3.8e-4 -0.0088,-0.001 v 0 c -0.780914,-0.2401 -1.535507,-0.48621 -2.26816,-0.73936 v 0 c -2.448037,-1.06232 -6.56758,-3.58124 -10.779255,-9.41469 -0.35536,-0.49122 -0.71072,-1.00606 -1.06608,-1.545 -1.601269,-2.43699 -3.198195,-5.37581 -4.707378,-8.920388 -0.206197,-0.49073 -0.412393,-0.9925 -0.61859,-1.50684 -1.022208,-2.57015 -1.996158,-5.43765 -2.891138,-8.63464 -0.136002,-0.4842 -0.272005,-0.97894 -0.403619,-1.47871 -0.811624,-3.07845 -1.548667,-6.44421 -2.193579,-10.13546 -0.03509,-0.18734 -0.06581,-0.37771 -0.100906,-0.56706 -0.05264,-0.31945 -0.105296,-0.63489 -0.157938,-0.95282 -0.390458,-2.35669 -0.732656,-4.68526 -1.030983,-6.97211 -0.06581,-0.5063 -0.127228,-1.01009 -0.188647,-1.51237 -0.289554,-2.34865 -0.530848,-4.6526 -0.72827,-6.914852 -0.04387,-0.49976 -0.08774,-1.003052 -0.127227,-1.498285 -0.09213,-1.132146 -0.171099,-2.248203 -0.245682,-3.356729 0.601042,1.421957 1.285438,2.975997 2.053191,4.630499 0.0044,0.08884 0.01316,0.178812 0.02194,0.268211 0.219358,2.227106 0.4782,4.464756 0.789688,6.710936 0.0702,0.5063 0.14039,1.01158 0.214972,1.51838 0.350973,2.37126 0.754591,4.74904 1.224018,7.11275 0.100906,0.51735 0.206195,1.0352 0.315875,1.55154 0.193034,0.92017 0.390457,1.83582 0.605427,2.75198 0.596654,2.58773 1.232793,5.01071 1.899641,7.28 0.149163,0.51383 0.302715,1.02265 0.456265,1.5209 0.991498,3.20554 2.035642,6.08659 3.110496,8.67685 0.214971,0.52537 0.434329,1.0377 0.653687,1.53897 1.548668,3.533528 3.145595,6.485418 4.698649,8.943048 0.350973,0.55 0.697559,1.07487 1.039757,1.57665 5.59363,8.17507 10.432667,10.07016 10.432667,10.07016" />
    <path
       inkscape:connector-curvature="0"
       id="path3791"
       style="fill:#200f0c;fill-opacity:1;fill-rule:nonzero;stroke:none;stroke-width:0.04694222"
       d="m 117.33142,116.47919 -0.0571,-1.02314 -0.0833,-1.50331 -0.0746,-1.30793 c 4.75568,-0.43899 9.37536,-1.23661 13.72743,-2.42851 l 0.079,1.55304 0.0833,1.51738 0.0395,0.83629 -13.71426,2.35618" />
    <path
       inkscape:connector-curvature="0"
       id="path3793"
       style="fill:#5d2e19;fill-opacity:1;fill-rule:nonzero;stroke:none;stroke-width:0.04694222"
       d="m 115.27384,112.55339 80.8422,32.97854 v -1.57013 l -80.8422,-32.48781 v 1.0794" />
    <path
       inkscape:connector-curvature="0"
       id="path3795"
       style="fill:#b06a44;fill-opacity:1;fill-rule:nonzero;stroke:none;stroke-width:0.04694222"
       d="m 115.13783,111.30774 15.66655,-1.88957 82.88662,19.91932 v 1.27579 l -17.57496,15.50782 v -2.1593 l -80.97821,-32.65406" />
    <path
       inkscape:connector-curvature="0"
       id="path3797"
       style="fill:#4c2416;fill-opacity:1;fill-rule:nonzero;stroke:none;stroke-width:0.04694222"
       d="m 117.15593,113.32138 0.17549,3.15781 74.5861,29.64191 1.95228,-1.50634 -76.71387,-31.29338" />
  </g>
</svg>
