<?xml version="1.0" encoding="UTF-8" standalone="no"?>
<!-- Created with Inkscape (http://www.inkscape.org/) -->

<svg
   xmlns:dc="http://purl.org/dc/elements/1.1/"
   xmlns:cc="http://creativecommons.org/ns#"
   xmlns:rdf="http://www.w3.org/1999/02/22-rdf-syntax-ns#"
   xmlns:svg="http://www.w3.org/2000/svg"
   xmlns="http://www.w3.org/2000/svg"
   xmlns:sodipodi="http://sodipodi.sourceforge.net/DTD/sodipodi-0.dtd"
   xmlns:inkscape="http://www.inkscape.org/namespaces/inkscape"
   width="145.65617mm"
   height="109.74529mm"
   viewBox="0 0 145.65617 109.74529"
   version="1.1"
   id="svg5017"
   inkscape:version="0.92.2 5c3e80d, 2017-08-06"
   sodipodi:docname="arca.svg">
  <defs
     id="defs5011" />
  <sodipodi:namedview
     id="base"
     pagecolor="#ffffff"
     bordercolor="#666666"
     borderopacity="1.0"
     inkscape:pageopacity="0.0"
     inkscape:pageshadow="2"
     inkscape:zoom="0.7"
     inkscape:cx="151.96222"
     inkscape:cy="174.08554"
     inkscape:document-units="mm"
     inkscape:current-layer="layer1"
     showgrid="false"
     inkscape:window-width="1920"
     inkscape:window-height="1044"
     inkscape:window-x="1680"
     inkscape:window-y="36"
     inkscape:window-maximized="1" />
  <metadata
     id="metadata5014">
    <rdf:RDF>
      <cc:Work
         rdf:about="">
        <dc:format>image/svg+xml</dc:format>
        <dc:type
           rdf:resource="http://purl.org/dc/dcmitype/StillImage" />
        <dc:title></dc:title>
      </cc:Work>
    </rdf:RDF>
  </metadata>
  <g
     inkscape:label="Camada 1"
     inkscape:groupmode="layer"
     id="layer1"
     transform="translate(-33.005242,-80.353545)">
    <path
       inkscape:connector-curvature="0"
       id="path3799"
       style="fill:#a7a5a6;fill-opacity:1;fill-rule:nonzero;stroke:none;stroke-width:0.03527778"
       d="m 170.93912,179.74903 c 0,5.71572 -30.55903,10.3498 -68.25474,10.3498 -37.69502,0 -68.25369,-4.63408 -68.25369,-10.3498 0,-5.71641 30.55867,-10.34979 68.25369,-10.34979 37.69571,0 68.25474,4.63338 68.25474,10.34979" />
    <path
       inkscape:connector-curvature="0"
       id="path3801"
       style="fill:#b06a44;fill-opacity:1;fill-rule:nonzero;stroke:none;stroke-width:0.03527778"
       d="m 64.60201,121.63666 v -19.05953 h 78.18015 v 19.32411 l -78.18015,-0.26458" />
    <path
       inkscape:connector-curvature="0"
       id="path3803"
       style="fill:#975034;fill-opacity:1;fill-rule:nonzero;stroke:none;stroke-width:0.03527778"
       d="m 69.39838,120.60937 v -13.45565 c 1.61255,-0.27376 3.54506,-0.57961 5.74922,-0.88759 v 0.0469 c -2.42182,0.91264 -4.14479,3.2512 -4.14479,5.99228 0,2.74109 1.72297,5.07965 4.14479,5.99229 v 2.10749 c -1.97697,0.0635 -3.89855,0.13229 -5.74922,0.20426" />
    <path
       inkscape:connector-curvature="0"
       id="path3805"
       style="fill:#975034;fill-opacity:1;fill-rule:nonzero;stroke:none;stroke-width:0.03527778"
       d="m 81.75971,120.21779 v -3.22051 c 1.25871,-1.16911 2.04682,-2.83845 2.04682,-4.69195 0,-1.85349 -0.78811,-3.52319 -2.04682,-4.69229 v -2.16853 c 1.81646,-0.19791 3.73768,-0.38453 5.74957,-0.55033 v 15.2019 c -1.95368,0.0349 -3.8735,0.0759 -5.74957,0.12171" />
    <path
       inkscape:connector-curvature="0"
       id="path3807"
       style="fill:#975034;fill-opacity:1;fill-rule:nonzero;stroke:none;stroke-width:0.03527778"
       d="m 94.12105,120.004 v -15.55326 c 1.86584,-0.096 3.78743,-0.16969 5.74958,-0.2152 v 15.73072 c -1.93958,0.006 -3.8587,0.0187 -5.74958,0.0377" />
    <path
       inkscape:connector-curvature="0"
       id="path3809"
       style="fill:#975034;fill-opacity:1;fill-rule:nonzero;stroke:none;stroke-width:0.03527778"
       d="m 112.23196,120.02693 c -1.92828,-0.0254 -3.84987,-0.0427 -5.74957,-0.0529 v -15.77798 c 1.8923,0.0222 3.81035,0.0737 5.74957,0.15981 v 15.67109" />
    <path
       inkscape:connector-curvature="0"
       id="path3811"
       style="fill:#975034;fill-opacity:1;fill-rule:nonzero;stroke:none;stroke-width:0.03527778"
       d="m 124.59329,120.29787 c -1.92123,-0.06 -3.84104,-0.11113 -5.74957,-0.15381 v -15.36065 c 1.90923,0.16404 3.82728,0.36477 5.74957,0.60677 v 2.04964 c -1.3716,1.17405 -2.2412,2.91818 -2.2412,4.86551 0,1.94698 0.8696,3.69112 2.2412,4.86552 v 3.12702" />
    <path
       inkscape:connector-curvature="0"
       id="path3813"
       style="fill:#975034;fill-opacity:1;fill-rule:nonzero;stroke:none;stroke-width:0.03527778"
       d="m 136.95462,120.80975 c -1.91452,-0.0998 -3.83293,-0.19015 -5.74957,-0.27058 v -2.31811 c 2.31916,-0.96237 3.95041,-3.24837 3.95041,-5.91573 0,-2.66241 -1.6249,-4.94488 -3.93736,-5.91008 1.92123,0.3429 3.83364,0.73166 5.73652,1.17157 v 13.24293" />
    <path
       inkscape:connector-curvature="0"
       id="path3815"
       style="fill:#7a4524;fill-opacity:1;fill-rule:nonzero;stroke:none;stroke-width:0.03527778"
       d="m 33.71738,117.39274 h 7.49723 v 4.99816 c 0,0 76.93449,-3.39196 126.37947,1.07068 l 0.71331,-5.17666 10.35403,2.14206 c 0,0 -4.64255,49.26648 -29.2742,61.04714 0,0 -58.54912,4.46299 -90.85792,-1.96286 0,0 -30.52375,-17.13653 -24.81192,-62.11852" />
    <path
       inkscape:connector-curvature="0"
       id="path3817"
       style="fill:#775c47;fill-opacity:1;fill-rule:nonzero;stroke:none;stroke-width:0.03527778"
       d="m 58.59421,179.52396 c -0.0219,-0.004 -0.0434,-0.008 -0.0649,-0.0127 0.0219,0.004 0.043,0.008 0.0649,0.0127" />
    <path
       inkscape:connector-curvature="0"
       id="path3819"
       style="fill:#4c2416;fill-opacity:1;fill-rule:nonzero;stroke:none;stroke-width:0.03527778"
       d="m 39.25105,128.99525 c 0,0 -6.96136,-5.17666 1.96356,-6.60435 5.83177,-0.93345 74.97093,-5.53368 126.37947,1.07068 0,0 4.99956,2.85609 2.32198,7.13987 0,0 -119.59767,-2.49873 -130.66501,-1.6062" />
    <path
       inkscape:connector-curvature="0"
       id="path3821"
       style="fill:#4c2416;fill-opacity:1;fill-rule:nonzero;stroke:none;stroke-width:0.03527778"
       d="M 165.13345,135.98096 C 140.50957,134.81502 41.97732,133.58877 40.98531,133.57642 l 0.0166,-1.33879 c 0.99236,0.0124 99.54789,1.23895 124.19506,2.40594 l -0.0635,1.33739" />
    <path
       inkscape:connector-curvature="0"
       id="path3823"
       style="fill:#4c2416;fill-opacity:1;fill-rule:nonzero;stroke:none;stroke-width:0.03527778"
       d="m 130.09698,142.84319 c -38.67327,0 -87.92987,-2.93899 -88.5938,-2.97921 l 0.0811,-1.33632 c 0.89112,0.054 89.49091,5.34035 122.13308,1.70109 l 0.14817,1.33068 c -8.3887,0.93521 -20.45441,1.28376 -33.76859,1.28376" />
    <path
       inkscape:connector-curvature="0"
       id="path3825"
       style="fill:#4c2416;fill-opacity:1;fill-rule:nonzero;stroke:none;stroke-width:0.03527778"
       d="m 124.60705,150.57855 c -37.82413,0 -81.10679,-2.65995 -81.69911,-2.69664 l 0.0829,-1.33632 c 0.80962,0.0504 81.36996,5.00063 118.59824,1.3589 l 0.13018,1.33244 c -10.03547,0.98143 -23.20749,1.34162 -37.11222,1.34162" />
    <path
       inkscape:connector-curvature="0"
       id="path3827"
       style="fill:#4c2416;fill-opacity:1;fill-rule:nonzero;stroke:none;stroke-width:0.03527778"
       d="m 111.8439,158.96796 c -33.3943,0 -65.74896,-1.84115 -66.23474,-1.86938 l 0.0773,-1.33632 c 0.7299,0.0423 73.45293,4.17866 113.36303,0.003 l 0.13899,1.33175 c -13.4119,1.40335 -30.51104,1.87114 -47.34454,1.87114" />
    <path
       inkscape:connector-curvature="0"
       id="path3829"
       style="fill:#4c2416;fill-opacity:1;fill-rule:nonzero;stroke:none;stroke-width:0.03527778"
       d="m 119.4258,167.08819 c -33.34879,0 -70.00134,-2.26095 -70.51781,-2.29305 l 0.0836,-1.33597 c 0.72566,0.0455 72.98196,4.50074 106.77772,0.86395 l 0.14323,1.33103 c -9.82416,1.05728 -22.88293,1.43404 -36.48675,1.43404" />
    <path
       inkscape:connector-curvature="0"
       id="path3831"
       style="fill:#4c2416;fill-opacity:1;fill-rule:nonzero;stroke:none;stroke-width:0.03527778"
       d="m 107.16607,175.00488 c -27.52408,0 -53.04896,-2.02847 -53.45325,-2.06093 l 0.10795,-1.33456 c 0.63994,0.0519 64.36361,5.11387 98.94359,-0.83079 l 0.22719,1.31939 c -12.8457,2.20839 -29.68202,2.90689 -45.82548,2.90689" />
    <path
       inkscape:connector-curvature="0"
       id="path3833"
       style="fill:#4c2416;fill-opacity:1;fill-rule:nonzero;stroke:none;stroke-width:0.03527778"
       d="m 83.80653,112.30533 c 0,3.53554 -2.86632,6.40151 -6.40186,6.40151 -3.53554,0 -6.40186,-2.86597 -6.40186,-6.40151 0,-3.53553 2.86632,-6.40185 6.40186,-6.40185 3.53554,0 6.40186,2.86632 6.40186,6.40185" />
    <path
       inkscape:connector-curvature="0"
       id="path3835"
       style="fill:#51ade5;fill-opacity:1;fill-rule:nonzero;stroke:none;stroke-width:0.03527778"
       d="m 80.8118,112.30533 c 0,1.88172 -1.52541,3.40713 -3.40713,3.40713 -1.88171,0 -3.40713,-1.52541 -3.40713,-3.40713 0,-1.88207 1.52542,-3.40748 3.40713,-3.40748 1.88172,0 3.40713,1.52541 3.40713,3.40748" />
    <path
       inkscape:connector-curvature="0"
       id="path3837"
       style="fill:#b06a44;fill-opacity:1;fill-rule:nonzero;stroke:none;stroke-width:0.03527778"
       d="m 80.8118,112.30533 h -0.17639 c 0,0.89253 -0.36124,1.69933 -0.94615,2.28459 -0.58526,0.58491 -1.39171,0.94615 -2.28459,0.94615 -0.89253,0 -1.69933,-0.36124 -2.28459,-0.94615 -0.5849,-0.58526 -0.94615,-1.39206 -0.94615,-2.28459 0,-0.89288 0.36125,-1.69968 0.94615,-2.28494 0.58526,-0.5849 1.39206,-0.94615 2.28459,-0.94615 0.89288,0 1.69933,0.36125 2.28459,0.94615 0.58491,0.58526 0.94615,1.39206 0.94615,2.28494 h 0.17639 0.17639 c 0,-1.97943 -1.60443,-3.58387 -3.58352,-3.58387 -1.97908,0 -3.58351,1.60444 -3.58351,3.58387 0,1.97909 1.60443,3.58352 3.58351,3.58352 1.97909,0 3.58352,-1.60443 3.58352,-3.58352 H 80.8118" />
    <path
       inkscape:connector-curvature="0"
       id="path3839"
       style="fill:#4c2416;fill-opacity:1;fill-rule:nonzero;stroke:none;stroke-width:0.03527778"
       d="m 109.481,112.30533 c 0,3.53554 -2.86597,6.40151 -6.40221,6.40151 -3.53519,0 -6.40152,-2.86597 -6.40152,-6.40151 0,-3.53589 2.86633,-6.40185 6.40152,-6.40185 3.53624,0 6.40221,2.86596 6.40221,6.40185" />
    <path
       inkscape:connector-curvature="0"
       id="path3841"
       style="fill:#51ade5;fill-opacity:1;fill-rule:nonzero;stroke:none;stroke-width:0.03527778"
       d="m 106.48662,112.30533 c 0,1.88172 -1.52576,3.40713 -3.40783,3.40713 -1.88172,0 -3.40713,-1.52541 -3.40713,-3.40713 0,-1.88207 1.52541,-3.40748 3.40713,-3.40748 1.88207,0 3.40783,1.52541 3.40783,3.40748" />
    <path
       inkscape:connector-curvature="0"
       id="path3843"
       style="fill:#b06a44;fill-opacity:1;fill-rule:nonzero;stroke:none;stroke-width:0.03527778"
       d="m 106.48662,112.30533 h -0.17639 c -2.6e-4,0.89253 -0.3616,1.69933 -0.9465,2.28459 -0.58526,0.58491 -1.39206,0.94615 -2.28494,0.94615 -0.89253,0 -1.69898,-0.36124 -2.28424,-0.94615 -0.58491,-0.58526 -0.9465,-1.39206 -0.9465,-2.28459 0,-0.89288 0.36159,-1.69968 0.9465,-2.28494 0.58526,-0.5849 1.39171,-0.94615 2.28424,-0.94615 0.89288,0 1.69968,0.36125 2.28494,0.94615 0.5849,0.58526 0.94615,1.39206 0.9465,2.28494 h 0.17639 0.17639 c -2.7e-4,-1.97943 -1.60443,-3.58387 -3.58422,-3.58387 -1.97909,0 -3.58317,1.60444 -3.58352,3.58387 2.6e-4,1.97909 1.60443,3.58352 3.58352,3.58352 1.97979,0 3.58387,-1.60443 3.58422,-3.58352 h -0.17639" />
    <path
       inkscape:connector-curvature="0"
       id="path3845"
       style="fill:#4c2416;fill-opacity:1;fill-rule:nonzero;stroke:none;stroke-width:0.03527778"
       d="m 135.15546,112.30533 c 0,3.53554 -2.86632,6.40151 -6.40151,6.40151 -3.53589,0 -6.40186,-2.86597 -6.40186,-6.40151 0,-3.53553 2.86597,-6.40185 6.40186,-6.40185 3.53519,0 6.40151,2.86632 6.40151,6.40185" />
    <path
       inkscape:connector-curvature="0"
       id="path3847"
       style="fill:#51ade5;fill-opacity:1;fill-rule:nonzero;stroke:none;stroke-width:0.03527778"
       d="m 132.16108,112.30533 c 0,1.88172 -1.52541,3.40713 -3.40713,3.40713 -1.88207,0 -3.40748,-1.52541 -3.40748,-3.40713 0,-1.88207 1.52541,-3.40748 3.40748,-3.40748 1.88172,0 3.40713,1.52541 3.40713,3.40748" />
    <path
       inkscape:connector-curvature="0"
       id="path3849"
       style="fill:#b06a44;fill-opacity:1;fill-rule:nonzero;stroke:none;stroke-width:0.03527778"
       d="m 132.16108,112.30533 h -0.17639 c 0,0.89253 -0.36124,1.69933 -0.94615,2.28459 -0.58526,0.58491 -1.39206,0.94615 -2.28459,0.94615 -0.89288,0 -1.69968,-0.36124 -2.28494,-0.94615 -0.58491,-0.58526 -0.94615,-1.39206 -0.94615,-2.28459 0,-0.89288 0.36124,-1.69968 0.94615,-2.28494 0.58526,-0.5849 1.39206,-0.94615 2.28494,-0.94615 0.89253,0 1.69933,0.36125 2.28459,0.94615 0.58491,0.58526 0.94615,1.39206 0.94615,2.28494 h 0.17639 0.17639 c 0,-1.97943 -1.60443,-3.58387 -3.58352,-3.58387 -1.97979,0 -3.58387,1.60444 -3.58387,3.58387 0,1.97909 1.60408,3.58352 3.58387,3.58352 1.97909,0 3.58352,-1.60443 3.58352,-3.58352 h -0.17639" />
    <path
       inkscape:connector-curvature="0"
       id="path3851"
       style="fill:#70584b;fill-opacity:1;fill-rule:nonzero;stroke:none;stroke-width:0.03527778"
       d="m 106.67536,182.98295 c -0.002,0 -0.002,0 -0.004,0 0.002,0 0.002,0 0.004,0 v 0 m 0.004,0 c 17.8562,-7.9e-4 33.82292,-0.91651 39.99618,-1.3208 -2.6e-4,0 -2.6e-4,0 -2.6e-4,0 -6.17396,0.40429 -22.13645,1.32045 -39.99582,1.3208 m -47.71825,-3.38702 c -0.0857,-0.0166 -0.16651,-0.0325 -0.25153,-0.049 0.085,0.0166 0.1658,0.0325 0.25153,0.049 m -0.28575,-0.0557 c -0.0279,-0.006 -0.0536,-0.0106 -0.0811,-0.0162 0,0 3.4e-4,0 7.1e-4,2.6e-4 0.0275,0.005 0.0526,0.0102 0.0804,0.0159" />
    <path
       inkscape:connector-curvature="0"
       id="path3853"
       style="fill:#552c1a;fill-opacity:1;fill-rule:nonzero;stroke:none;stroke-width:0.03527778"
       d="m 106.67536,182.98295 c -0.002,0 -0.002,0 -0.004,0 -16.32304,-2.6e-4 -34.23639,-0.76623 -47.71003,-3.38702 -0.0857,-0.0166 -0.16651,-0.0325 -0.25153,-0.049 -0.01,-0.002 -0.0243,-0.005 -0.0342,-0.007 -0.0279,-0.006 -0.0529,-0.0106 -0.0804,-0.0159 0.38664,0.0765 0.77858,0.15099 1.17298,0.22472 -2.0454,-2.19887 -3.87173,-4.46123 -5.50474,-6.7624 3.88232,0.29633 27.54418,2.01824 52.90291,2.01824 15.9385,0 32.55258,-0.68086 45.33477,-2.82362 -1.77235,3.44698 -3.71228,6.66678 -5.82577,9.48088 -6.1729,0.4043 -22.13963,1.3201 -39.99583,1.32082 -0.002,0 -10e-4,0 -0.004,0 m 0.50518,-9.31475 c -27.45459,0 -52.95618,-2.02636 -53.35976,-2.05881 l -0.054,0.66816 c -1.69863,-2.46063 -3.17747,-4.95759 -4.46582,-7.45843 2.0828,0.12559 12.14014,0.7172 25.69422,1.26471 8.07402,4.32929 20.38385,6.28473 33.16535,6.28473 13.31207,0 27.13778,-2.12125 37.22229,-5.88786 3.6449,-0.20214 7.05978,-0.46178 10.16,-0.78704 -0.84067,1.95827 -1.72897,3.88337 -2.66489,5.74533 l -0.11359,-0.6604 c -12.76915,2.19499 -29.51092,2.88961 -45.58383,2.88961 m 48.66076,-8.67587 -0.072,-0.66921 c -2.06269,0.22189 -4.26791,0.4138 -6.59236,0.5782 4.18818,-1.94662 7.44714,-4.23334 9.35531,-6.81496 -0.83502,2.31598 -1.73178,4.63267 -2.69098,6.90597 m -83.2379,-0.34678 c -13.74775,-0.57785 -23.34966,-1.17016 -23.61177,-1.18639 l -0.042,0.66816 c -1.17581,-2.34738 -2.18617,-4.69582 -3.05153,-7.01216 1.53388,0.0854 8.96161,0.48859 19.64725,0.89711 1.59597,1.93887 3.40572,3.77331 5.45747,5.44689 0.50377,0.41063 1.03752,0.80574 1.60056,1.18639 m -8.14635,-8.01511 c -11.19716,-0.43709 -18.54129,-0.85478 -18.7706,-0.86819 l -0.0388,0.6724 c -1.05833,-2.91959 -1.89018,-5.78626 -2.54106,-8.54075 1.18252,0.072 7.41116,0.4445 16.61266,0.89006 1.28693,2.6864 2.84727,5.33964 4.73781,7.84648 m -5.37034,-9.21737 c -9.66365,-0.47201 -15.87395,-0.85372 -16.09584,-0.86748 l -0.0416,0.66957 c -0.58314,-2.56716 -1.01036,-5.03202 -1.31939,-7.34377 0.91899,0.0547 6.52709,0.38382 14.97154,0.80433 0.66604,2.21192 1.48343,4.47957 2.48532,6.73735 m -2.87832,-8.09731 c -8.79898,-0.44026 -14.40321,-0.7747 -14.62405,-0.7881 l -0.0409,0.67521 c -0.25188,-2.00765 -0.41487,-3.89537 -0.51506,-5.6261 0.56586,0.007 5.81272,0.0727 13.89486,0.18345 0.33232,1.76777 0.75318,3.63573 1.28517,5.55554 m -15.21495,-6.39304 c -0.0734,-1.46508 -0.10125,-2.80811 -0.10125,-4.01249 2.15054,-0.0748 5.6194,-0.1076 10.06969,-0.1076 1.01882,0 2.09021,0.002 3.2071,0.005 0.13265,1.13065 0.30128,2.34068 0.51506,3.61033 -8.23525,-0.11249 -13.45777,-0.1774 -13.68213,-0.18022 l -0.008,0.68509" />
    <path
       inkscape:connector-curvature="0"
       id="path3855"
       style="fill:#533526;fill-opacity:1;fill-rule:nonzero;stroke:none;stroke-width:0.03527778"
       d="m 58.59491,179.52432 c -3.4e-4,-2.6e-4 -7.1e-4,-2.6e-4 -7.1e-4,-2.6e-4 -0.0219,-0.004 -0.043,-0.008 -0.0649,-0.0127 v 0 c 0,0 -3.56553,-2.00166 -8.03169,-6.43325 v 0 c 4.46616,4.43159 8.03169,6.43325 8.03169,6.43325 0.0219,0.004 0.0437,0.008 0.0656,0.013" />
    <path
       inkscape:connector-curvature="0"
       id="path3857"
       style="fill:#411e15;fill-opacity:1;fill-rule:nonzero;stroke:none;stroke-width:0.03527778"
       d="m 59.7679,179.74903 c -0.39441,-0.0737 -0.78634,-0.14816 -1.17299,-0.22471 -0.0219,-0.005 -0.0437,-0.009 -0.0656,-0.013 0,0 -3.56552,-2.00166 -8.03169,-6.43326 -7.48382,-7.426 -17.49636,-21.67469 -17.49213,-44.75764 3.6e-4,-3.44382 0.22402,-7.08413 0.71191,-10.92765 h 7.49723 v 4.99816 0 0 c -8.92492,1.42769 -1.96356,6.60435 -1.96356,6.60435 0.40534,-0.0328 0.95603,-0.061 1.64112,-0.085 0,1.20438 0.0279,2.54741 0.10125,4.01249 l -0.008,0.6537 c 0.008,0 0.0222,2.7e-4 0.043,2.7e-4 0.10019,1.73072 0.26317,3.61844 0.51505,5.6261 l -0.0402,0.6611 c 0.0159,10e-4 0.0582,0.004 0.12664,0.007 0.30904,2.31175 0.73625,4.77661 1.31939,7.34378 l -0.0413,0.66675 c 0.0198,0.001 0.0864,0.005 0.19861,0.012 0.65088,2.75449 1.48273,5.62116 2.54106,8.54075 l -0.0385,0.66392 c 0.0233,0.001 0.121,0.007 0.28892,0.0166 0.86537,2.31634 1.87572,4.66479 3.05153,7.01217 l -0.0416,0.66781 c 0.0279,0.002 0.16122,0.01 0.393,0.024 1.28834,2.50084 2.76718,4.9978 4.46581,7.45842 l -0.054,0.6664 c 0.0317,0.003 0.21872,0.0177 0.55033,0.0427 1.63301,2.30117 3.45934,4.56354 5.50475,6.7624" />
    <path
       inkscape:connector-curvature="0"
       id="path3859"
       style="fill:#371810;fill-opacity:1;fill-rule:nonzero;stroke:none;stroke-width:0.03527778"
       d="m 39.25105,128.99525 c 0,0 -6.96136,-5.17666 1.96356,-6.60435 v 0 0 c 0,0 4.68595,-0.20673 12.48516,-0.45085 0.024,1.55786 0.12735,3.95146 0.46919,6.86752 -1.11689,-0.003 -2.18828,-0.005 -3.2071,-0.005 -4.45029,0 -7.91915,0.0328 -10.06969,0.1076 -0.68509,0.024 -1.23578,0.0522 -1.64112,0.085" />
    <path
       inkscape:connector-curvature="0"
       id="path3861"
       style="fill:#371810;fill-opacity:1;fill-rule:nonzero;stroke:none;stroke-width:0.03527778"
       d="m 54.9232,133.76022 c -8.08214,-0.11077 -13.329,-0.17639 -13.89486,-0.18345 -0.0208,0 -0.0353,-2.6e-4 -0.043,-2.6e-4 l 0.008,-0.6537 0.008,-0.68509 c 0.22436,0.003 5.44688,0.0677 13.68213,0.18027 0.0741,0.44097 0.15346,0.88759 0.23918,1.34232" />
    <path
       inkscape:connector-curvature="0"
       id="path3863"
       style="fill:#371810;fill-opacity:1;fill-rule:nonzero;stroke:none;stroke-width:0.03527778"
       d="m 56.60137,140.67572 c -8.44445,-0.42051 -14.05255,-0.74965 -14.97154,-0.80433 -0.0684,-0.004 -0.11077,-0.006 -0.12665,-0.007 l 0.0402,-0.66111 0.0409,-0.67521 c 0.22084,0.0134 5.82507,0.34784 14.62405,0.7881 0.12453,0.4505 0.25541,0.90382 0.393,1.35996" />
    <path
       inkscape:connector-curvature="0"
       id="path3865"
       style="fill:#371810;fill-opacity:1;fill-rule:nonzero;stroke:none;stroke-width:0.03527778"
       d="m 59.71922,148.78397 c -9.20151,-0.44556 -15.43015,-0.8181 -16.61266,-0.89006 -0.11219,-0.007 -0.17886,-0.0109 -0.19862,-0.012 l 0.0413,-0.66675 0.0416,-0.66957 c 0.22189,0.0138 6.43219,0.39546 16.09584,0.86748 0.2032,0.45755 0.4138,0.91475 0.63253,1.37089" />
    <path
       inkscape:connector-curvature="0"
       id="path3867"
       style="fill:#371810;fill-opacity:1;fill-rule:nonzero;stroke:none;stroke-width:0.03527778"
       d="m 65.54534,158.01228 c -10.68564,-0.40852 -18.11337,-0.81174 -19.64725,-0.89711 -0.16792,-0.01 -0.26564,-0.0152 -0.28893,-0.0166 l 0.0385,-0.66393 0.0388,-0.67239 c 0.22931,0.0134 7.57344,0.43109 18.7706,0.86818 0.35137,0.46602 0.71367,0.92639 1.08832,1.38183" />
    <path
       inkscape:connector-curvature="0"
       id="path3869"
       style="fill:#371810;fill-opacity:1;fill-rule:nonzero;stroke:none;stroke-width:0.03527778"
       d="m 145.38284,166.48071 c 1.33314,-0.49777 2.60173,-1.02482 3.79412,-1.57939 2.32446,-0.16439 4.52967,-0.3563 6.59236,-0.5782 l 0.072,0.66922 c -0.0988,0.23389 -0.19826,0.46814 -0.29845,0.70132 -3.10021,0.32526 -6.5151,0.58491 -10.16,0.78705 M 74.9952,166.08383 c -13.55408,-0.54751 -23.61142,-1.13911 -25.69422,-1.2647 -0.23177,-0.0141 -0.36512,-0.0222 -0.39299,-0.024 l 0.0416,-0.66781 0.042,-0.66816 c 0.26211,0.0162 9.86402,0.60854 23.61177,1.18639 0.74789,0.50588 1.54658,0.98495 2.39183,1.43827" />
    <path
       inkscape:connector-curvature="0"
       id="path3871"
       style="fill:#371810;fill-opacity:1;fill-rule:nonzero;stroke:none;stroke-width:0.03527778"
       d="m 107.16607,175.00488 c -25.35873,0 -49.0206,-1.72191 -52.90291,-2.01824 -0.33162,-0.0251 -0.51859,-0.0399 -0.55034,-0.0427 l 0.054,-0.6664 0.054,-0.66816 c 0.40358,0.0325 25.90518,2.05881 53.35976,2.05881 16.07291,0 32.81469,-0.69462 45.58383,-2.8896 l 0.11359,0.6604 c -0.12523,0.24941 -0.25012,0.4953 -0.37712,0.74225 -12.78219,2.14276 -29.39626,2.82362 -45.33476,2.82362" />
    <path
       inkscape:connector-curvature="0"
       id="path3877"
       style="fill:#7a4524;fill-opacity:1;fill-rule:nonzero;stroke:none;stroke-width:0.03527778"
       d="m 178.66142,120.42698 -10.35403,-2.14206 -0.71331,5.17666 c 0,0 -6.31649,38.75369 -20.91902,58.20057 1.74696,-0.1143 2.71216,-0.18803 2.71216,-0.18803 24.63165,-11.78066 29.2742,-61.04714 29.2742,-61.04714" />
    <path
       inkscape:connector-curvature="0"
       id="path3891"
       style="fill:#c1a085;fill-opacity:1;fill-rule:nonzero;stroke:none;stroke-width:0.03527778"
       d="m 175.36295,119.74436 -7.05556,-1.45944 7.05556,1.45944 v 0" />
    <path
       inkscape:connector-curvature="0"
       id="path3893"
       style="fill:#61321d;fill-opacity:1;fill-rule:nonzero;stroke:none;stroke-width:0.03527778"
       d="m 146.67506,181.66215 c 14.60253,-19.44688 20.91902,-58.20057 20.91902,-58.20057 l 0.71331,-5.17666 7.05556,1.45944 c -1.37231,10.66376 -6.46289,40.13729 -22.48429,59.7281 -1.04281,0.70132 -2.12478,1.33245 -3.24979,1.88454 -0.007,0.004 -0.013,0.006 -0.0205,0.0102 h -2.6e-4 l -2.6e-4,2.6e-4 c -0.004,0.002 -0.007,0.004 -0.0106,0.005 -0.009,0.004 -0.0166,0.008 -0.0257,0.0124 -0.002,0.001 -0.004,0.002 -0.006,0.003 l -2.6e-4,2.6e-4 -0.003,0.001 c -0.0134,0.006 -0.0247,0.012 -0.0381,0.0183 -0.003,0.001 -0.007,0.004 -0.0102,0.005 -0.0106,0.005 -0.0198,0.01 -0.0303,0.0145 -0.005,0.002 -0.009,0.004 -0.0134,0.006 -0.001,8e-4 -0.006,0.003 -0.008,0.004 -0.002,7.9e-4 -0.004,0.002 -0.005,0.002 -0.005,0.002 -0.0124,0.006 -0.0169,0.008 -0.004,0.002 -0.007,0.004 -0.0116,0.006 l -0.001,2.7e-4 c -0.002,0.001 -0.004,0.002 -0.006,0.003 -0.012,0.006 -0.0222,0.0106 -0.0342,0.0162 0,0 -10e-4,2.6e-4 -0.004,2.6e-4 -0.0646,0.005 -1.0227,0.0773 -2.70863,0.18768" />
    <path
       inkscape:connector-curvature="0"
       id="path3895"
       style="fill:#7a4524;fill-opacity:1;fill-rule:nonzero;stroke:none;stroke-width:0.03527778"
       d="m 57.90488,102.57713 h 90.85757 L 137.87361,82.495612 c 0,0 -41.18822,-4.81965 -66.8708,0 L 57.90488,102.57713" />
    <path
       inkscape:connector-curvature="0"
       id="path3897"
       style="fill:#7a4524;fill-opacity:1;fill-rule:nonzero;stroke:none;stroke-width:0.03527778"
       d="m 148.76245,102.57713 -2.80494,-5.172777 h 2.6e-4 l 2.80458,5.172777 m -90.85757,0 3.37336,-5.172777 -3.37326,5.172777" />
    <path
       inkscape:connector-curvature="0"
       id="path3899"
       style="fill:#421c14;fill-opacity:1;fill-rule:nonzero;stroke:none;stroke-width:0.03527778"
       d="M 148.76245,102.57713 H 57.90488 l 3.37361,-5.172777 h 84.67938 l 2.80458,5.172777" />
    <path
       inkscape:connector-curvature="0"
       id="path3901"
       style="fill:#81442c;fill-opacity:1;fill-rule:nonzero;stroke:none;stroke-width:0.03527778"
       d="m 142.78216,109.09012 c -1.92334,-0.56445 -3.86927,-1.07068 -5.82754,-1.5233 v -4.98969 h 5.82754 v 6.51299 m -78.18015,-1.04599 v -5.467 h 4.79637 v 4.57659 c -2.29694,0.38982 -3.94406,0.71473 -4.79637,0.89041 m 66.60304,-1.65453 c -0.75494,-0.31326 -1.58291,-0.48612 -2.4511,-0.48612 -0.13758,0 -0.27411,0.005 -0.40922,0.013 -1.24989,-0.19368 -2.50225,-0.36866 -3.75144,-0.52635 v -2.81305 h 6.61176 v 3.81247 M 75.1476,106.26608 v -3.689 h 6.61211 v 2.86738 c -1.39029,0.15134 -2.72062,0.30939 -3.98004,0.4699 -0.12417,-0.007 -0.24906,-0.0109 -0.375,-0.0109 -0.71367,0 -1.40017,0.11677 -2.04117,0.33232 -0.072,0.0102 -0.14464,0.0201 -0.2159,0.0303 m 12.36168,-1.37196 v -2.31704 h 6.61177 v 1.8736 c -2.29094,0.11783 -4.50004,0.26917 -6.61177,0.44344 m 31.33444,-0.11077 c -2.22144,-0.1905 -4.42842,-0.33091 -6.61176,-0.42757 v -1.7787 h 6.61176 v 2.20627 m -18.97309,-0.54787 v -1.6584 h 6.61176 v 1.61889 c -0.72214,-0.008 -1.44075,-0.0123 -2.15406,-0.0123 -1.50742,0 -2.99438,0.018 -4.4577,0.0519" />
    <path
       inkscape:connector-curvature="0"
       id="path3903"
       style="fill:#703626;fill-opacity:1;fill-rule:nonzero;stroke:none;stroke-width:0.03527778"
       d="m 69.39838,107.15372 v -4.57659 h 5.74922 v 3.689 c -2.20416,0.30798 -4.13667,0.61383 -5.74922,0.88759" />
    <path
       inkscape:connector-curvature="0"
       id="path3905"
       style="fill:#703626;fill-opacity:1;fill-rule:nonzero;stroke:none;stroke-width:0.03527778"
       d="m 81.75971,105.44451 v -2.86738 h 5.74957 v 2.31705 c -2.01189,0.1658 -3.93311,0.35242 -5.74957,0.55033" />
    <path
       inkscape:connector-curvature="0"
       id="path3907"
       style="fill:#703626;fill-opacity:1;fill-rule:nonzero;stroke:none;stroke-width:0.03527778"
       d="m 94.12105,104.45074 v -1.87361 h 5.74958 v 1.65841 c -1.96215,0.0455 -3.88374,0.11924 -5.74958,0.2152" />
    <path
       inkscape:connector-curvature="0"
       id="path3909"
       style="fill:#703626;fill-opacity:1;fill-rule:nonzero;stroke:none;stroke-width:0.03527778"
       d="m 112.23196,104.35584 c -1.93922,-0.0861 -3.85727,-0.13758 -5.74957,-0.15981 v -1.6189 h 5.74957 v 1.77871" />
    <path
       inkscape:connector-curvature="0"
       id="path3911"
       style="fill:#703626;fill-opacity:1;fill-rule:nonzero;stroke:none;stroke-width:0.03527778"
       d="m 124.59329,105.39018 c -1.92229,-0.242 -3.84034,-0.44273 -5.74957,-0.60677 v -2.20628 h 5.74957 v 2.81305" />
    <path
       inkscape:connector-curvature="0"
       id="path3913"
       style="fill:#703626;fill-opacity:1;fill-rule:nonzero;stroke:none;stroke-width:0.03527778"
       d="m 136.95462,107.56682 c -1.90288,-0.43991 -3.81529,-0.82867 -5.73652,-1.17157 -0.004,-0.002 -0.009,-0.004 -0.013,-0.006 v -3.81247 h 5.74957 v 4.98969" />
    <path
       inkscape:connector-curvature="0"
       id="path3915"
       style="fill:#3a1911;fill-opacity:1;fill-rule:nonzero;stroke:none;stroke-width:0.03527778"
       d="m 75.3635,106.23579 c 0.641,-0.21555 1.3275,-0.33231 2.04117,-0.33231 0.12594,0 0.25083,0.004 0.375,0.0109 -0.83608,0.10653 -1.64288,0.21413 -2.41617,0.32138" />
    <path
       inkscape:connector-curvature="0"
       id="path3917"
       style="fill:#3a1911;fill-opacity:1;fill-rule:nonzero;stroke:none;stroke-width:0.03527778"
       d="m 131.2181,106.39525 c -0.95602,-0.17075 -1.91522,-0.33056 -2.87337,-0.47872 0.13511,-0.008 0.27164,-0.013 0.40922,-0.013 0.86819,0 1.69616,0.17286 2.4511,0.48613 0.004,0.002 0.009,0.004 0.013,0.006" />
  </g>
</svg>
